HIERARCHY
ROOT Hips
{
	OFFSET 0.000000 97.167313 0.000000
	CHANNELS 6 Xposition Yposition Zposition Xrotation Yrotation Zrotation
	JOINT Spine
	{
		OFFSET 0.000000 13.784798 0.064400
		CHANNELS 3 Xrotation Yrotation Zrotation
		JOINT Spine1
		{
			OFFSET 0.000000 12.037903 0.404700
			CHANNELS 3 Xrotation Yrotation Zrotation
			JOINT Spine2
			{
				OFFSET 0.000000 17.795601 0.420200
				CHANNELS 3 Xrotation Yrotation Zrotation
				JOINT Neck
				{
					OFFSET 0.000000 39.131302 11.954600
					CHANNELS 3 Xrotation Yrotation Zrotation
					JOINT Head
					{
						OFFSET 0.000000 14.456192 15.627699
						CHANNELS 3 Xrotation Yrotation Zrotation
						JOINT HeadTop_End
						{
							OFFSET 0.000000 15.703506 7.603401
							CHANNELS 3 Xrotation Yrotation Zrotation
							End Site
							{
								OFFSET 0.000000 17.447403 0.000000
							}
						}
					}
				}
				JOINT LeftShoulder
				{
					OFFSET 17.399500 24.608795 1.168800
					CHANNELS 3 Xrotation Yrotation Zrotation
					JOINT LeftArm
					{
						OFFSET 18.980635 5.765305 1.818600
						CHANNELS 3 Xrotation Yrotation Zrotation
						JOINT LeftForeArm
						{
							OFFSET 49.290169 0.000000 0.000000
							CHANNELS 3 Xrotation Yrotation Zrotation
							JOINT LeftHand
							{
								OFFSET 31.562012 0.000000 0.000000
								CHANNELS 3 Xrotation Yrotation Zrotation
								JOINT LeftHandThumb1
								{
									OFFSET 6.133995 -4.388519 7.076070
									CHANNELS 3 Xrotation Yrotation Zrotation
									JOINT LeftHandThumb2
									{
										OFFSET 6.037666 -3.485840 3.485847
										CHANNELS 3 Xrotation Yrotation Zrotation
										JOINT LeftHandThumb3
										{
											OFFSET 6.496506 -3.750763 3.750761
											CHANNELS 3 Xrotation Yrotation Zrotation
											JOINT LeftHandThumb4
											{
												OFFSET 5.616882 -3.242905 3.242910
												CHANNELS 3 Xrotation Yrotation Zrotation
												End Site
												{
													OFFSET -1.254608 7.132141 0.375429
												}
											}
										}
									}
								}
								JOINT LeftHandPinky1
								{
									OFFSET 18.920792 -0.453171 -11.426712
									CHANNELS 3 Xrotation Yrotation Zrotation
									JOINT LeftHandPinky2
									{
										OFFSET 4.919586 0.000000 0.000000
										CHANNELS 3 Xrotation Yrotation Zrotation
										JOINT LeftHandPinky3
										{
											OFFSET 5.233047 0.000000 0.000000
											CHANNELS 3 Xrotation Yrotation Zrotation
											JOINT LeftHandPinky4
											{
												OFFSET 5.571716 0.000000 0.000000
												CHANNELS 3 Xrotation Yrotation Zrotation
												End Site
												{
													OFFSET -3.459808 4.342407 -0.466164
												}
											}
										}
									}
								}
								JOINT LeftHandRing1
								{
									OFFSET 22.726120 -0.094986 -6.500475
									CHANNELS 3 Xrotation Yrotation Zrotation
									JOINT LeftHandRing2
									{
										OFFSET 6.408615 0.000000 0.000000
										CHANNELS 3 Xrotation Yrotation Zrotation
										JOINT LeftHandRing3
										{
											OFFSET 6.150223 0.000000 0.000000
											CHANNELS 3 Xrotation Yrotation Zrotation
											JOINT LeftHandRing4
											{
												OFFSET 6.145386 0.000000 0.000000
												CHANNELS 3 Xrotation Yrotation Zrotation
												End Site
												{
													OFFSET -3.671402 4.923981 -0.202372
												}
											}
										}
									}
								}
								JOINT LeftHandMiddle1
								{
									OFFSET 23.373947 0.000000 0.000001
									CHANNELS 3 Xrotation Yrotation Zrotation
									JOINT LeftHandMiddle2
									{
										OFFSET 6.996567 0.000000 0.000000
										CHANNELS 3 Xrotation Yrotation Zrotation
										JOINT LeftHandMiddle3
										{
											OFFSET 7.015945 0.000000 0.000000
											CHANNELS 3 Xrotation Yrotation Zrotation
											JOINT LeftHandMiddle4
											{
												OFFSET 7.721573 0.000000 0.000000
												CHANNELS 3 Xrotation Yrotation Zrotation
												End Site
												{
													OFFSET -4.651108 6.158463 0.251582
												}
											}
										}
									}
								}
								JOINT LeftHandIndex1
								{
									OFFSET 21.310577 -0.490082 6.209344
									CHANNELS 3 Xrotation Yrotation Zrotation
									JOINT LeftHandIndex2
									{
										OFFSET 7.536453 0.000000 0.000000
										CHANNELS 3 Xrotation Yrotation Zrotation
										JOINT LeftHandIndex3
										{
											OFFSET 7.512344 0.000000 0.000000
											CHANNELS 3 Xrotation Yrotation Zrotation
											JOINT LeftHandIndex4
											{
												OFFSET 10.212402 0.000000 0.000001
												CHANNELS 3 Xrotation Yrotation Zrotation
												End Site
												{
													OFFSET -5.180801 8.690506 1.388433
												}
											}
										}
									}
								}
							}
						}
					}
				}
				JOINT RightShoulder
				{
					OFFSET -17.399500 24.608795 1.168800
					CHANNELS 3 Xrotation Yrotation Zrotation
					JOINT RightArm
					{
						OFFSET -18.980635 5.765305 1.818600
						CHANNELS 3 Xrotation Yrotation Zrotation
						JOINT RightForeArm
						{
							OFFSET -49.290169 0.000000 0.000000
							CHANNELS 3 Xrotation Yrotation Zrotation
							JOINT RightHand
							{
								OFFSET -31.562012 0.000000 0.000000
								CHANNELS 3 Xrotation Yrotation Zrotation
								JOINT RightHandThumb1
								{
									OFFSET -6.133995 -4.388519 7.076070
									CHANNELS 3 Xrotation Yrotation Zrotation
									JOINT RightHandThumb2
									{
										OFFSET -6.037666 -3.485840 3.485847
										CHANNELS 3 Xrotation Yrotation Zrotation
										JOINT RightHandThumb3
										{
											OFFSET -6.496506 -3.750763 3.750761
											CHANNELS 3 Xrotation Yrotation Zrotation
											JOINT RightHandThumb4
											{
												OFFSET -5.616882 -3.242905 3.242910
												CHANNELS 3 Xrotation Yrotation Zrotation
												End Site
												{
													OFFSET 1.254608 7.132141 0.375429
												}
											}
										}
									}
								}
								JOINT RightHandIndex1
								{
									OFFSET -21.310577 -0.490082 6.209344
									CHANNELS 3 Xrotation Yrotation Zrotation
									JOINT RightHandIndex2
									{
										OFFSET -7.536453 0.000000 0.000000
										CHANNELS 3 Xrotation Yrotation Zrotation
										JOINT RightHandIndex3
										{
											OFFSET -7.512344 0.000000 0.000000
											CHANNELS 3 Xrotation Yrotation Zrotation
											JOINT RightHandIndex4
											{
												OFFSET -10.212402 0.000000 0.000001
												CHANNELS 3 Xrotation Yrotation Zrotation
												End Site
												{
													OFFSET 5.180801 8.690506 1.388433
												}
											}
										}
									}
								}
								JOINT RightHandMiddle1
								{
									OFFSET -23.373947 0.000000 0.000001
									CHANNELS 3 Xrotation Yrotation Zrotation
									JOINT RightHandMiddle2
									{
										OFFSET -6.996567 0.000000 0.000000
										CHANNELS 3 Xrotation Yrotation Zrotation
										JOINT RightHandMiddle3
										{
											OFFSET -7.015945 0.000000 0.000000
											CHANNELS 3 Xrotation Yrotation Zrotation
											JOINT RightHandMiddle4
											{
												OFFSET -7.721573 0.000000 0.000000
												CHANNELS 3 Xrotation Yrotation Zrotation
												End Site
												{
													OFFSET 4.651108 6.158463 0.251582
												}
											}
										}
									}
								}
								JOINT RightHandRing1
								{
									OFFSET -22.726120 -0.094986 -6.500475
									CHANNELS 3 Xrotation Yrotation Zrotation
									JOINT RightHandRing2
									{
										OFFSET -6.408615 0.000000 0.000000
										CHANNELS 3 Xrotation Yrotation Zrotation
										JOINT RightHandRing3
										{
											OFFSET -6.150223 0.000000 0.000000
											CHANNELS 3 Xrotation Yrotation Zrotation
											JOINT RightHandRing4
											{
												OFFSET -6.145386 0.000000 0.000000
												CHANNELS 3 Xrotation Yrotation Zrotation
												End Site
												{
													OFFSET 3.671402 4.923981 -0.202372
												}
											}
										}
									}
								}
								JOINT RightHandPinky1
								{
									OFFSET -18.920792 -0.453171 -11.426712
									CHANNELS 3 Xrotation Yrotation Zrotation
									JOINT RightHandPinky2
									{
										OFFSET -4.919586 0.000000 0.000000
										CHANNELS 3 Xrotation Yrotation Zrotation
										JOINT RightHandPinky3
										{
											OFFSET -5.233047 0.000000 0.000000
											CHANNELS 3 Xrotation Yrotation Zrotation
											JOINT RightHandPinky4
											{
												OFFSET -5.571716 0.000000 0.000000
												CHANNELS 3 Xrotation Yrotation Zrotation
												End Site
												{
													OFFSET 3.459808 4.342407 -0.466164
												}
											}
										}
									}
								}
							}
						}
					}
				}
			}
		}
	}
	JOINT LeftUpLeg
	{
		OFFSET 19.899099 -7.885101 -3.429500
		CHANNELS 3 Xrotation Yrotation Zrotation
		JOINT LeftLeg
		{
			OFFSET 1.745560 -36.997807 10.304700
			CHANNELS 3 Xrotation Yrotation Zrotation
			JOINT LeftFoot
			{
				OFFSET -1.745558 -29.803308 -13.615400
				CHANNELS 3 Xrotation Yrotation Zrotation
				JOINT LeftToeBase
				{
					OFFSET 1.181900 -18.539904 15.226099
					CHANNELS 3 Xrotation Yrotation Zrotation
					JOINT LeftToe_End
					{
						OFFSET -0.863701 1.402801 16.534700
						CHANNELS 3 Xrotation Yrotation Zrotation
						End Site
						{
							OFFSET 0.000000 16.616566 0.000000
						}
					}
				}
			}
		}
	}
	JOINT RightUpLeg
	{
		OFFSET -19.899099 -7.885101 -3.429500
		CHANNELS 3 Xrotation Yrotation Zrotation
		JOINT RightLeg
		{
			OFFSET -1.745560 -36.997807 10.304700
			CHANNELS 3 Xrotation Yrotation Zrotation
			JOINT RightFoot
			{
				OFFSET 1.745558 -29.803308 -13.615400
				CHANNELS 3 Xrotation Yrotation Zrotation
				JOINT RightToeBase
				{
					OFFSET -1.181900 -18.539904 15.226099
					CHANNELS 3 Xrotation Yrotation Zrotation
					JOINT RightToe_End
					{
						OFFSET 0.863701 1.402801 16.534700
						CHANNELS 3 Xrotation Yrotation Zrotation
						End Site
						{
							OFFSET 0.000000 16.616566 0.000000
						}
					}
				}
			}
		}
	}
}
MOTION
Frames: 4
Frame Time: 0.033333
-114.121796 52.158974 65.851868 141.351161 -42.535560 144.753360 3.384543 -4.388861 2.330986 6.787093 -6.042835 3.428576 6.834278 -5.997666 3.418881 -1.225602 7.975315 -6.224575 -0.633697 34.122443 -12.302686 -0.000003 -0.000000 0.000000 0.350604 -15.495802 -11.901870 -63.579731 -62.725165 -64.645480 0.000000 -64.526013 -0.000012 27.034495 -13.636090 32.751672 -9.635651 -15.813942 0.321966 8.997875 35.655876 3.094625 -9.501431 -11.506914 9.997401 0.000001 0.000000 0.000003 1.700900 6.420657 -43.887264 1.418424 3.823042 -40.699267 1.417777 3.822337 -40.690067 0.000003 0.000001 -0.000004 1.140382 5.740785 -35.245911 0.951164 3.201699 -33.083773 1.065080 3.369803 -35.070993 -0.000003 -0.000001 -0.000000 -0.159216 3.251056 -25.973688 0.670122 2.722656 -27.649366 0.769138 2.903654 -29.666951 -0.000001 -0.000002 0.000006 -0.742919 -0.392792 -13.475514 0.224857 1.609066 -15.909606 0.231054 1.630648 -16.128925 0.000001 0.000000 -0.000001 -8.801186 0.026098 20.238204 -30.598827 -30.955886 23.027370 0.000010 7.753905 0.000005 21.433110 8.582714 -37.332103 -11.130510 18.424744 -0.837754 9.034221 -37.530274 -3.634854 -7.300702 5.717344 -12.115421 -0.000000 -0.000001 -0.000000 -0.659355 1.013627 10.422967 0.281210 -1.595345 19.992116 0.337952 -1.743344 21.939391 0.000001 -0.000001 -0.000002 -0.263710 -2.686688 25.575058 0.654858 -2.383260 30.724175 0.565399 -2.225996 28.499991 0.000001 -0.000001 -0.000004 0.910263 -4.994145 32.127721 1.046813 -2.943811 39.143479 0.750603 -2.537296 32.954573 -0.000001 -0.000000 -0.000002 1.520184 -5.711328 40.762658 1.202518 -3.125127 42.084234 0.978160 -2.857516 37.787059 -0.000001 0.000000 0.000001 -64.143153 -7.571657 74.433332 57.407760 -27.420102 -7.645489 -5.498050 14.483066 -20.984008 -6.649237 0.000020 -0.000002 -0.000000 -0.000000 -0.000000 -105.811433 -0.642849 -23.205776 63.172126 12.607538 -6.368292 4.641789 27.959349 22.529420 -1.049833 0.000017 -0.000006 -0.000000 -0.000001 -0.000000 
-116.390274 52.093941 69.212524 143.004299 -41.848682 146.835721 2.805146 -6.210672 1.842835 5.844338 -7.633717 3.341971 5.842446 -7.603954 3.346548 -0.872542 8.967654 -8.475059 -3.225838 36.687668 -9.094195 -0.000003 0.000000 0.000000 0.456313 -15.584263 -10.882038 -81.073949 -66.331403 -89.370348 -0.000003 -68.237743 -0.000017 28.455948 -13.406429 37.020093 -9.847040 -15.883072 0.647855 9.028233 35.924285 3.159628 -9.484687 -11.423171 10.072249 0.000000 -0.000000 -0.000001 1.553720 6.308854 -44.151955 1.388614 3.788210 -40.250318 1.410880 3.814313 -40.586422 -0.000000 0.000000 -0.000002 1.096279 5.678973 -35.368892 0.930857 3.170341 -32.718204 1.076450 3.385934 -35.264144 -0.000001 -0.000001 0.000005 -0.112055 3.343392 -25.903912 0.656874 2.697293 -27.369654 0.747965 2.866186 -29.245992 0.000002 0.000001 0.000004 -0.684027 -0.260995 -13.008721 0.223391 1.603915 -15.857220 0.228004 1.620043 -16.021189 0.000002 -0.000000 0.000001 -7.859600 -1.861288 17.741189 -34.029379 -32.289210 22.062151 0.000001 9.583118 0.000011 28.051848 3.517826 -36.473009 -10.421046 17.826474 -0.236861 9.007507 -37.260536 -3.571657 -7.309234 5.804667 -12.046046 -0.000000 0.000001 -0.000000 -0.792934 1.052416 12.061677 0.310494 -1.673614 21.018695 0.387383 -1.861333 23.511429 0.000004 -0.000001 0.000003 -0.321712 -2.731187 27.784803 0.722927 -2.494145 32.323997 0.598570 -2.285984 29.342561 0.000001 0.000000 -0.000008 0.908600 -4.977899 35.001721 1.151369 -3.067626 41.137369 0.818851 -2.639493 34.465616 0.000000 -0.000002 -0.000000 1.395288 -5.554349 43.894685 1.320892 -3.251209 44.212443 1.079273 -2.983211 39.771597 0.000002 0.000000 0.000001 -56.309814 -3.232165 76.010942 54.399889 -27.647299 -10.719470 -8.658394 18.842475 -33.885139 -6.540932 0.000031 -0.000002 0.000000 0.000000 0.000000 -103.842009 0.691830 -25.034284 57.637624 16.024742 -6.345718 7.546893 27.272720 26.596968 -2.342449 0.000022 0.000002 0.000000 -0.000002 -0.000000 
-118.646881 53.259262 72.271866 145.935693 -44.504594 148.799578 2.352082 -7.096692 1.244276 5.151013 -8.312910 3.175355 5.131099 -8.343642 3.234149 0.965695 9.281227 -9.185831 -4.040841 38.587273 -7.352873 -0.000001 -0.000001 0.000000 0.544521 -14.114673 -10.204085 -89.507751 -65.703654 -98.636019 0.000008 -70.912417 -0.000017 34.870855 -11.938874 45.632333 -10.172316 -15.991216 1.163979 9.058613 36.192711 3.224527 -9.467964 -11.339437 10.147065 0.000002 -0.000002 -0.000002 1.408264 6.202949 -43.457881 1.285291 3.662932 -38.660360 1.314928 3.699595 -39.121910 0.000001 0.000001 -0.000007 1.026556 5.577346 -34.627874 0.860552 3.058326 -31.424321 1.022607 3.308579 -34.341764 0.000001 -0.000001 0.000001 -0.075612 3.374844 -25.247769 0.608691 2.602194 -26.327224 0.672012 2.726299 -27.689457 -0.000002 -0.000003 0.000006 -0.613259 -0.160444 -12.261087 0.211262 1.560597 -15.417878 0.211664 1.562043 -15.432833 -0.000001 0.000003 0.000001 -6.603861 0.908368 17.881686 -38.417051 -35.150824 16.245974 0.000001 11.975757 -0.000001 26.815760 0.287629 -37.205342 -9.850911 17.348810 0.103246 8.980821 -36.990816 -3.508359 -7.317808 5.892005 -11.976648 -0.000000 -0.000001 -0.000001 -0.899592 1.137251 13.154250 0.318088 -1.693223 21.277074 0.401548 -1.893538 23.943696 0.000000 -0.000001 -0.000001 -0.383238 -2.693729 28.821489 0.741101 -2.522605 32.739258 0.591134 -2.272736 29.155878 0.000001 -0.000001 -0.000004 0.862659 -4.916764 36.352992 1.178757 -3.098650 41.646535 0.820014 -2.641194 34.490874 0.000000 0.000001 -0.000003 1.329644 -5.493682 45.308483 1.353188 -3.284029 44.779004 1.105604 -3.014525 40.274856 -0.000001 -0.000003 0.000000 -48.197923 -2.311714 73.560967 54.475765 -23.619197 -12.072040 -11.063370 19.515679 -40.497599 -6.730478 0.000022 0.000014 0.000000 -0.000000 -0.000000 -99.800682 1.256511 -28.573318 53.432741 18.482970 -5.940114 15.193150 26.740078 26.590425 -8.175900 -0.000016 0.000000 -0.000000 -0.000001 -0.000000 
-120.789322 55.296158 75.792366 150.327819 -49.365769 151.834928 2.191976 -6.186499 0.861308 4.850612 -7.167318 3.000922 4.847058 -7.153933 3.017555 3.342763 8.463429 -6.765595 -1.975133 38.690423 -9.473121 0.000000 0.000000 -0.000000 0.878639 -14.589620 -6.406787 -82.824295 -58.983581 -86.324159 -0.000030 -70.294169 -0.000024 34.686621 -15.864223 38.707403 -10.590269 -16.132821 1.835848 9.089025 36.461124 3.289302 -9.451270 -11.255705 10.221837 0.000004 -0.000003 -0.000003 1.274808 6.091860 -41.971058 1.128138 3.457744 -36.130130 1.152567 3.490907 -36.533326 0.000003 0.000002 -0.000005 0.939064 5.441265 -33.172491 0.753942 2.876832 -29.365370 0.918610 3.151224 -32.496285 0.000000 -0.000001 0.000001 -0.048888 3.357700 -24.107219 0.535057 2.447904 -24.655969 0.558364 2.498012 -25.196161 -0.000002 -0.000003 0.000008 -0.535831 -0.083542 -11.282945 0.191091 1.485527 -14.658868 0.185632 1.464513 -14.446834 -0.000001 -0.000000 -0.000001 -4.847466 1.908292 16.675876 -42.471329 -36.422598 10.815045 0.000008 14.334284 -0.000010 21.894038 0.612674 -39.867230 -9.400984 16.932789 0.298606 8.954160 -36.721108 -3.444952 -7.326402 5.979349 -11.907261 -0.000001 -0.000002 0.000002 -0.987707 1.254564 13.875531 0.305254 -1.659919 20.838631 0.384266 -1.854168 23.415326 -0.000001 0.000001 -0.000001 -0.446461 -2.584511 28.898011 0.714670 -2.481057 32.133796 0.545526 -2.189026 27.984074 -0.000001 0.000002 -0.000009 0.782104 -4.808618 36.459973 1.134381 -3.048094 40.818839 0.761680 -2.554298 33.203916 0.000000 0.000000 -0.000007 1.334128 -5.506369 45.318858 1.309133 -3.239103 44.004692 1.065092 -2.966100 39.498226 0.000000 -0.000002 0.000002 -40.467587 -4.715342 68.155241 58.520931 -18.058168 -12.470191 -14.479668 18.652618 -41.480794 -7.385043 0.000034 0.000003 -0.000000 -0.000000 -0.000000 -96.487794 0.023154 -32.837866 54.631965 17.639559 -6.419213 20.623910 26.260761 13.566226 -18.797227 0.000019 0.000007 -0.000000 0.000001 0.000000 
